<?xml version="1.0" encoding="UTF-8"?>
<svg id="Layer_2" data-name="Layer 2" xmlns="http://www.w3.org/2000/svg" viewBox="0 0 1375.76 314.07">
  <defs>
    <style>
      .cls-1 {
        fill: #000;
        stroke-width: 0px;
      }
    </style>
  </defs>
  <g id="Layer_1-2" data-name="Layer 1">
    <path class="cls-1" d="M168.05,239.44c44.01,24.95,82.62,33.38,83.01,33.46l-8.68,41.17c-1.79-.38-44.33-9.51-93.81-37.31-29.2-16.41-54.9-35.99-76.39-58.21-6.39-6.61-12.39-13.46-18.03-20.52-1.09,2.65-2.16,5.32-3.15,8.02-14.59,39.62-6.92,94.69-6.84,95.24l-41.64,6.04c-.39-2.67-9.33-66.06,9-115.83,4.37-11.88,9.57-23.37,15.55-34.47-5.97-11.1-11.17-22.6-15.55-34.47C-6.81,72.79,2.13,9.41,2.52,6.74l41.64,6.07c-.08.53-7.74,55.6,6.84,95.22.99,2.7,2.06,5.37,3.15,8.02,5.64-7.06,11.64-13.91,18.02-20.52,21.49-22.22,47.19-41.81,76.39-58.21C198.05,9.51,240.59.38,242.37,0l8.65,41.18-4.33-20.59,4.36,20.58c-.38.08-39,8.51-83.01,33.46-25.42,14.41-47.68,31.47-66.16,50.7-9.58,9.97-18.15,20.56-25.7,31.71,7.55,11.14,16.12,21.73,25.7,31.71,18.48,19.23,40.74,36.28,66.16,50.7ZM360.35,157.03c0-45.67-37.15-82.82-82.82-82.82s-82.82,37.15-82.82,82.82,37.15,82.82,82.82,82.82,82.82-37.15,82.82-82.82ZM318.28,157.03c0,22.47-18.28,40.74-40.74,40.74s-40.74-18.28-40.74-40.74,18.28-40.74,40.74-40.74,40.74,18.28,40.74,40.74ZM397.13,41.83v216.46h108.23c64.94,0,112.56-45.89,112.56-108.23s-47.62-108.23-112.56-108.23h-108.23ZM440.43,80.79h64.94c38.96,0,67.1,29.44,67.1,69.27s-28.14,69.27-67.1,69.27h-64.94V80.79ZM664.12,41.83v216.46h212.13v-38.96h-168.84v-49.78h125.55v-38.96h-125.55v-49.79h168.84v-38.96h-212.13ZM919.61,154.39c0,62.34,44.16,108.23,103.9,108.23s103.9-45.89,103.9-108.23V41.83h-43.29v112.56c0,38.96-25.54,67.1-60.61,67.1s-60.61-28.14-60.61-67.1V41.83h-43.29v112.56ZM1167.96,193.35c0,41.56,41.56,69.27,103.9,69.27,67.53,0,103.9-24.68,103.9-70.57s-30.3-63.64-101.74-63.64c-41.13,0-58.44-6.49-58.44-22.94,0-19.05,19.48-29.01,56.28-29.01,33.77,0,56.28,12.12,56.28,30.3h43.29c0-41.56-39.83-69.27-99.57-69.27-64.94,0-99.57,23.81-99.57,67.97s29.44,61.91,97.84,61.91c43.29,0,62.34,7.36,62.34,24.68,0,20.35-21.21,31.6-60.61,31.6-36.36,0-60.61-12.12-60.61-30.3h-43.29Z"/>
  </g>
</svg>