<?xml version="1.0" encoding="UTF-8"?>
<svg id="Layer_2" data-name="Layer 2" xmlns="http://www.w3.org/2000/svg" viewBox="0 0 1011.36 572.25">
  <defs>
    <style>
      .cls-1 {
        fill: #000;
        stroke-width: 0px;
      }
    </style>
  </defs>
  <g id="Layer_1-2" data-name="Layer 1">
    <path class="cls-1" d="M306.2,436.26c80.18,45.46,150.54,60.81,151.24,60.97l-15.82,75.02c-3.26-.68-80.77-17.33-170.92-67.99-53.2-29.89-100.03-65.58-139.18-106.07-11.64-12.04-22.57-24.52-32.84-37.39-1.99,4.84-3.93,9.7-5.74,14.62-26.58,72.19-12.61,172.53-12.46,173.54l-75.87,11.01c-.71-4.87-17-120.36,16.39-211.04,7.97-21.64,17.44-42.58,28.32-62.81-10.88-20.23-20.36-41.17-28.32-62.81C-12.41,132.63,3.88,17.15,4.59,12.27l75.87,11.05c-.14.97-14.11,101.31,12.47,173.5,1.81,4.92,3.75,9.78,5.74,14.62,10.27-12.87,21.2-25.35,32.84-37.39,39.15-40.49,85.98-76.17,139.18-106.07C360.85,17.33,438.36.68,441.62,0l15.82,75.02c-.7.15-71.06,15.5-151.24,60.97-46.31,26.26-86.87,57.34-120.54,92.37-17.46,18.17-33.08,37.47-46.83,57.77,13.75,20.3,29.37,39.6,46.83,57.77,33.67,35.03,74.23,66.11,120.54,92.37ZM962.05,286.12c10.88-20.23,20.36-41.17,28.32-62.81,33.39-90.68,17.1-206.17,16.39-211.04l-75.87,11.01c.14,1.01,14.12,101.35-12.46,173.54-1.81,4.92-3.75,9.78-5.74,14.62-10.27-12.87-21.2-25.35-32.84-37.39-39.15-40.49-85.98-76.17-139.18-106.07C650.51,17.33,573,.68,569.74,0l-15.82,75.02c.7.15,71.06,15.5,151.24,60.97,46.31,26.26,86.87,57.34,120.54,92.37,17.46,18.17,33.08,37.47,46.83,57.77-13.75,20.3-29.37,39.6-46.83,57.77-33.67,35.03-74.23,66.11-120.54,92.37-80.18,45.46-150.54,60.81-151.24,60.97l15.82,75.02c3.26-.68,80.77-17.33,170.92-67.99,53.2-29.89,100.03-65.58,139.18-106.07,11.64-12.04,22.57-24.52,32.84-37.39,1.99,4.84,3.93,9.7,5.74,14.62,26.58,72.19,12.61,172.53,12.47,173.5l75.87,11.05c.71-4.87,17-120.36-16.39-211.04-7.97-21.64-17.44-42.58-28.32-62.81ZM656.58,286.12c0-83.21-67.69-150.9-150.9-150.9s-150.9,67.69-150.9,150.9,67.69,150.9,150.9,150.9,150.9-67.7,150.9-150.9ZM579.91,286.12c0,40.93-33.3,74.23-74.23,74.23s-74.23-33.3-74.23-74.23,33.3-74.23,74.23-74.23,74.23,33.3,74.23,74.23Z"/>
  </g>
</svg>